<?xml version="1.0" encoding="utf-8"?>
<!-- Generator: Adobe Illustrator 16.0.3, SVG Export Plug-In . SVG Version: 6.00 Build 0)  -->
<!DOCTYPE svg PUBLIC "-//W3C//DTD SVG 1.1//EN" "http://www.w3.org/Graphics/SVG/1.1/DTD/svg11.dtd">
<svg version="1.1" id="Layer_1" xmlns="http://www.w3.org/2000/svg" xmlns:xlink="http://www.w3.org/1999/xlink" x="0px" y="0px"
	 width="302.261px" height="77.325px" viewBox="0 0 302.261 77.325" enable-background="new 0 0 302.261 77.325"
	 xml:space="preserve">
<g>
	<path fill="#0768A9" d="M30.858,7.319V0.691c4.534,1.095,8.581,3.44,11.769,6.628H30.858z"/>
	<path fill="#0768A9" d="M30.858,42.632v6.628c4.534-1.097,8.581-3.44,11.769-6.628H30.858z"/>
	<path fill="#0768A9" d="M19.088,42.632v6.628c-4.531-1.097-8.578-3.44-11.769-6.628H19.088z"/>
	<path fill="#0768A9" d="M42.627,19.091h6.632c-1.098-4.529-3.441-8.579-6.632-11.771V19.091z"/>
	<path fill="#0768A9" d="M42.627,30.86h6.632c-1.098,4.53-3.441,8.578-6.632,11.771V30.86z"/>
	<path fill="#0768A9" d="M7.319,30.86H0.69c1.092,4.53,3.442,8.578,6.629,11.771V30.86z"/>
</g>
<g>
	<path fill="#5698C5" d="M19.088,7.319V0.691c-4.531,1.095-8.578,3.44-11.769,6.628H19.088z"/>
	<path fill="#5698C5" d="M24.953,49.95c2.028,0,4.017-0.234,5.905-0.69v-6.628H19.088v6.621C20.975,49.71,22.926,49.95,24.953,49.95
		z"/>
	<path fill="#5698C5" d="M49.949,24.997c0-2.027-0.235-4.021-0.69-5.906h-6.632v11.77h6.623
		C49.706,28.974,49.949,27.022,49.949,24.997z"/>
	<path fill="#5698C5" d="M7.319,19.091H0.69c1.092-4.529,3.442-8.579,6.629-11.771V19.091z"/>
</g>
<g>
	<path fill="#ABCCE2" d="M24.996,0c-2.028,0-4.021,0.236-5.908,0.691v6.628h11.771V0.697C28.973,0.241,27.018,0,24.996,0z"/>
	<path fill="#ABCCE2" d="M0,24.954c0,2.027,0.235,4.02,0.69,5.906h6.629v-11.77h-6.62C0.243,20.977,0,22.929,0,24.954z"/>
</g>
<g>
	<rect x="7.319" y="19.091" fill="#C8E5AA" width="11.769" height="11.77"/>
	<rect x="19.088" y="7.319" fill="#C8E5AA" width="11.771" height="11.771"/>
</g>
<rect x="19.088" y="19.091" fill="#EB114D" width="11.771" height="11.77"/>
<g>
	<rect x="7.319" y="7.319" fill="#92CC57" width="11.769" height="11.771"/>
	<rect x="19.088" y="30.86" fill="#92CC57" width="11.771" height="11.771"/>
	<rect x="30.858" y="19.091" fill="#92CC57" width="11.769" height="11.77"/>
</g>
<g>
	<rect x="7.319" y="30.86" fill="#6EBB1F" width="11.769" height="11.771"/>
	<rect x="30.858" y="7.319" fill="#6EBB1F" width="11.769" height="11.771"/>
	<rect x="30.858" y="30.86" fill="#6EBB1F" width="11.769" height="11.771"/>
</g>
<g>
	<path fill="#474747" d="M49.805,40.097h-0.827v2.549H48.24v-2.549h-0.918v-0.586h2.635L49.805,40.097z"/>
	<path fill="#474747" d="M52.925,42.646v-1.598c0-0.115,0-0.243,0.005-0.338h-0.005c-0.028,0.066-0.157,0.252-0.209,0.332
		l-0.514,0.771h-0.318l-0.586-0.799c-0.066-0.091-0.143-0.186-0.209-0.305h-0.01c0.005,0.104,0.005,0.229,0.005,0.313v1.622h-0.723
		v-3.135h0.656l0.785,1.094c0.095,0.134,0.171,0.248,0.242,0.371h0.01c0.057-0.113,0.133-0.247,0.229-0.395l0.704-1.07h0.661v3.135
		H52.925z"/>
</g>
<g>
	<path fill="#474747" d="M78.008,43.06c-8.29,0-13.434-5.952-13.434-14.113c0-8.119,5.696-14.539,13.943-14.539
		c3.358,0,5.866,0.851,7.142,1.658v3.316c-1.998-1.275-3.953-2.168-7.27-2.168c-6.248,0-10.499,5.016-10.499,11.52
		c0,6.674,3.91,11.477,10.457,11.477c2.38,0,4.719-0.764,6.589-1.786l0.936,2.55C83.279,42.421,80.601,43.06,78.008,43.06z"/>
	<path fill="#474747" d="M102.489,40.551c-1.573,1.615-3.783,2.509-6.377,2.509c-2.508,0-4.676-0.852-6.248-2.467
		c-1.828-1.869-2.806-4.717-2.806-8.033c0-3.316,1.02-6.079,2.806-7.949c1.615-1.658,3.783-2.594,6.291-2.594
		c2.593,0,4.761,0.936,6.376,2.594c1.786,1.87,2.806,4.633,2.806,7.949C105.336,35.875,104.317,38.681,102.489,40.551z
		 M96.155,24.653c-3.783,0-5.951,3.061-5.951,7.821c0,4.762,2.253,7.907,5.994,7.907c3.74,0,5.993-3.145,5.993-7.907
		C102.191,27.713,100.023,24.653,96.155,24.653z"/>
	<path fill="#474747" d="M134.752,42.634V29.372c0-2.679-0.553-4.549-3.23-4.549c-2.721,0-4.804,1.7-6.377,3.104
		c0.043,0.34,0.043,0.765,0.043,1.147v13.56h-3.104V29.457c0-2.678-0.638-4.634-3.273-4.634c-2.72,0-4.718,1.7-6.333,3.146v14.666
		h-3.104V22.527h2.593l0.426,2.424c2.678-2.125,5.059-2.934,7.226-2.934c2.466,0,4.251,1.36,4.932,3.358
		c2.21-2.04,5.016-3.358,7.354-3.358c3.062,0,5.952,1.488,5.952,6.291v14.326H134.752z"/>
	<path fill="#474747" d="M149.417,43.06c-1.487,0-2.508-0.299-3.357-0.639v10.287h-3.104V23.377c1.36-0.468,3.698-1.36,6.589-1.36
		c6.079,0,9.947,3.911,9.947,10.33C159.493,39.361,154.434,43.06,149.417,43.06z M149.502,24.823c-1.445,0-2.508,0.213-3.442,0.511
		v14.24c1.104,0.509,1.912,0.807,3.23,0.807c4.208,0,7.057-3.018,7.057-7.991C156.347,27.119,153.159,24.823,149.502,24.823z"/>
	<path fill="#474747" d="M164.38,42.634V14.621h3.102v25.123h10.627v2.891H164.38z"/>
	<path fill="#474747" d="M183.254,33.113c0,3.825,2.211,7.226,6.674,7.226c1.7,0,3.571-0.68,4.761-1.445l0.936,2.125
		c-1.445,1.189-3.996,2.041-6.334,2.041c-6.291,0-9.352-5.144-9.352-10.882c0-5.824,3.315-10.16,8.161-10.16
		c5.187,0,8.034,4.123,8.034,10.373c0,0.212,0,0.467,0,0.723H183.254z M188.143,24.653c-2.976,0-4.846,2.636-4.846,5.823h9.479
		C192.776,27.671,191.203,24.653,188.143,24.653z"/>
	<path fill="#474747" d="M212.073,42.634l-5.61-8.375l-5.696,8.375h-3.486l7.27-10.372l-6.674-9.735h3.613l5.271,7.907l5.398-7.907
		h3.358l-6.844,9.863l6.887,10.244H212.073z"/>
	<path fill="#474747" d="M86.568,72.177H85.05l-2.553-7.105c-0.22-0.638-0.483-1.386-0.726-2.199h-0.044
		c-0.242,0.813-0.484,1.539-0.726,2.178l-2.641,7.127h-1.518l-5.082-14.563h2.156l3.102,9.372c0.242,0.77,0.462,1.452,0.66,2.178
		h0.044c0.198-0.682,0.462-1.408,0.726-2.156l2.376-6.578l-0.989-2.815h2.023l3.19,9.24c0.286,0.813,0.571,1.519,0.77,2.222h0.044
		c0.176-0.727,0.353-1.386,0.616-2.156l2.992-9.306h2.046L86.568,72.177z"/>
	<path fill="#474747" d="M100.999,62.85c0.924,0.968,1.43,2.376,1.43,4.048s-0.527,3.102-1.474,4.07
		c-0.857,0.879-2.046,1.363-3.454,1.363c-1.364,0-2.508-0.439-3.366-1.275c-0.968-0.969-1.495-2.442-1.495-4.137
		c0-1.693,0.527-3.102,1.474-4.092c0.858-0.88,2.023-1.386,3.41-1.386C98.953,61.441,100.141,61.947,100.999,62.85z M94.619,66.876
		c0,2.31,1.1,3.85,2.926,3.85s2.882-1.563,2.882-3.85c0-2.311-1.056-3.828-2.926-3.828S94.619,64.587,94.619,66.876z"/>
	<path fill="#474747" d="M107.73,72.331c-1.43,0-2.002-0.88-2.002-2.046V56.536h1.937v12.891c0,0.902,0.22,1.145,0.813,1.145
		c0.132,0,0.33,0,0.616-0.088l0.242,1.43C108.764,72.222,108.28,72.331,107.73,72.331z"/>
	<path fill="#474747" d="M115.254,72.331c-1.628,0-2.354-0.924-2.354-2.287v-6.776h-1.738v-1.562h1.738v-2.332l1.958-0.617v2.949
		h3.212l-0.639,1.562h-2.573v6.116c0,0.857,0.33,1.254,1.012,1.254c0.704,0,1.386-0.375,1.804-0.682l0.572,1.319
		C117.367,71.913,116.222,72.331,115.254,72.331z"/>
	<path fill="#474747" d="M122.581,67.315c0,1.848,1.188,3.365,3.277,3.365c0.902,0,1.826-0.307,2.53-0.725l0.55,1.297
		c-0.901,0.683-2.244,1.078-3.454,1.078c-3.388,0-4.949-2.662-4.949-5.566c0-2.991,1.737-5.323,4.399-5.323
		c2.729,0,4.313,2.134,4.313,5.368c0,0.132,0,0.308,0,0.506H122.581z M124.913,63.025c-1.452,0-2.354,1.276-2.354,2.772h4.62
		C127.178,64.456,126.43,63.025,124.913,63.025z"/>
	<path fill="#474747" d="M137.782,63.597c-0.286-0.153-0.659-0.241-1.078-0.241c-0.615,0-1.518,0.462-2.178,1.144v7.612h-1.958
		V61.706h1.628l0.242,1.166c1.298-1.188,2.112-1.431,2.926-1.431c0.484,0,0.924,0.176,1.188,0.353L137.782,63.597z"/>
	<path fill="#474747" d="M143.057,72.331c-1.584,0-2.597-0.396-3.344-0.857l0.703-1.475c0.572,0.375,1.496,0.814,2.618,0.814
		c1.21,0,2.046-0.528,2.046-1.408c0-2.311-4.752-1.475-4.752-5.104c0-1.584,1.21-2.86,3.63-2.86c1.166,0,2.024,0.242,2.75,0.55
		v1.672c-0.77-0.33-1.584-0.638-2.684-0.638c-1.012,0-1.782,0.353-1.782,1.188c0,2.09,4.84,1.518,4.84,4.994
		C147.083,71.429,145.212,72.331,143.057,72.331z"/>
	<path fill="#474747" d="M164.726,72.111l-5.565-6.489h-0.022v6.489h-1.958V57.613h1.937v6.513h0.044l5.235-6.469h2.354
		l-5.896,7.084l6.379,7.37H164.726z"/>
	<path fill="#474747" d="M171.985,72.331c-1.43,0-2.002-0.88-2.002-2.046V56.536h1.937v12.891c0,0.902,0.22,1.145,0.813,1.145
		c0.132,0,0.33,0,0.616-0.088l0.242,1.43C173.02,72.222,172.535,72.331,171.985,72.331z"/>
	<path fill="#474747" d="M183.404,72.111l-0.418-1.056c-0.771,0.66-1.937,1.275-3.322,1.275s-3.278-0.726-3.278-3.783v-6.842h1.958
		v6.688c0,1.584,0.683,2.31,1.958,2.31c1.166,0,2.09-0.704,2.53-1.21v-7.787h1.936v6.533c0,2.729,0.066,3.41,0.221,3.872H183.404z"
		/>
	<path fill="#474747" d="M199.441,72.177h-1.628l-2.509-7.963h-0.065l-2.508,7.963h-1.606l-3.563-10.471h1.979l2.442,7.854h0.065
		l2.464-7.854h1.65l2.508,7.875h0.066l2.397-7.875h1.87L199.441,72.177z"/>
	<path fill="#474747" d="M206.851,67.315c0,1.848,1.188,3.365,3.277,3.365c0.902,0,1.826-0.307,2.53-0.725l0.55,1.297
		c-0.901,0.683-2.244,1.078-3.454,1.078c-3.388,0-4.949-2.662-4.949-5.566c0-2.991,1.737-5.323,4.399-5.323
		c2.729,0,4.313,2.134,4.313,5.368c0,0.132,0,0.308,0,0.506H206.851z M209.183,63.025c-1.452,0-2.354,1.276-2.354,2.772h4.62
		C211.448,64.456,210.7,63.025,209.183,63.025z"/>
	<path fill="#474747" d="M222.052,63.597c-0.286-0.153-0.66-0.241-1.078-0.241c-0.615,0-1.518,0.462-2.178,1.144v7.612h-1.958
		V61.706h1.628l0.242,1.166c1.298-1.188,2.112-1.431,2.926-1.431c0.484,0,0.924,0.176,1.188,0.353L222.052,63.597z"/>
	<path fill="#474747" d="M236.11,72.331c-3.256,0-4.928-2.464-4.928-5.324c0-2.969,1.869-5.565,5.235-5.565
		c1.101,0,2.068,0.308,2.75,0.683l-0.021,1.737c-0.683-0.462-1.563-0.792-2.685-0.792c-2.046,0-3.321,1.628-3.321,3.828
		c0,2.134,1.188,3.806,3.3,3.806c1.078,0,1.87-0.352,2.552-0.771l0.55,1.343C238.75,71.804,237.496,72.331,236.11,72.331z"/>
	<path fill="#474747" d="M244.646,72.331c-1.584,0-2.596-0.396-3.344-0.857l0.703-1.475c0.572,0.375,1.496,0.814,2.618,0.814
		c1.21,0,2.046-0.528,2.046-1.408c0-2.311-4.752-1.475-4.752-5.104c0-1.584,1.21-2.86,3.63-2.86c1.166,0,2.024,0.242,2.75,0.55
		v1.672c-0.77-0.33-1.584-0.638-2.684-0.638c-1.012,0-1.782,0.353-1.782,1.188c0,2.09,4.84,1.518,4.84,4.994
		C248.671,71.429,246.802,72.331,244.646,72.331z"/>
	<path fill="#474747" d="M259.715,62.85c0.924,0.968,1.43,2.376,1.43,4.048s-0.527,3.102-1.474,4.07
		c-0.857,0.879-2.046,1.363-3.454,1.363c-1.364,0-2.508-0.439-3.366-1.275c-0.968-0.969-1.495-2.442-1.495-4.137
		c0-1.693,0.527-3.102,1.474-4.092c0.858-0.88,2.023-1.386,3.41-1.386C257.669,61.441,258.857,61.947,259.715,62.85z
		 M253.335,66.876c0,2.31,1.1,3.85,2.926,3.85s2.882-1.563,2.882-3.85c0-2.311-1.056-3.828-2.926-3.828
		S253.335,64.587,253.335,66.876z"/>
	<path fill="#474747" d="M267.174,72.331c-0.704,0-1.21-0.132-1.672-0.308v5.302h-1.937v-15.18c0.814-0.286,2.046-0.704,3.608-0.704
		c3.344,0,5.302,2.046,5.302,5.323C272.476,70.285,269.945,72.331,267.174,72.331z M267.107,63.136
		c-0.682,0-1.166,0.109-1.605,0.242v6.974c0.527,0.22,0.945,0.352,1.584,0.352c2.067,0,3.388-1.474,3.388-3.872
		C270.474,64.279,268.934,63.136,267.107,63.136z"/>
	<path fill="#474747" d="M283.189,62.85c0.924,0.968,1.43,2.376,1.43,4.048s-0.527,3.102-1.474,4.07
		c-0.857,0.879-2.046,1.363-3.454,1.363c-1.364,0-2.508-0.439-3.366-1.275c-0.968-0.969-1.495-2.442-1.495-4.137
		c0-1.693,0.527-3.102,1.474-4.092c0.858-0.88,2.023-1.386,3.41-1.386C281.144,61.441,282.332,61.947,283.189,62.85z M276.81,66.876
		c0,2.31,1.1,3.85,2.926,3.85s2.882-1.563,2.882-3.85c0-2.311-1.056-3.828-2.926-3.828S276.81,64.587,276.81,66.876z"/>
</g>
<path fill="#474747" d="M292.692,63.597c-0.286-0.153-0.66-0.241-1.078-0.241c-0.615,0-1.518,0.462-2.178,1.144v7.612h-1.958V61.706
	h1.628l0.242,1.166c1.298-1.188,2.112-1.431,2.926-1.431c0.484,0,0.924,0.176,1.188,0.353L292.692,63.597z"/>
<path fill="#474747" d="M299.269,72.331c-1.628,0-2.354-0.924-2.354-2.287v-6.776h-1.738v-1.562h1.738v-2.332l1.958-0.617v2.949
	h3.212l-0.639,1.562h-2.573v6.116c0,0.857,0.33,1.254,1.012,1.254c0.704,0,1.386-0.375,1.804-0.682l0.572,1.319
	C301.381,71.913,300.236,72.331,299.269,72.331z"/>
</svg>
