<?xml version="1.0" encoding="utf-8"?>
<!-- Generator: Adobe Illustrator 16.0.3, SVG Export Plug-In . SVG Version: 6.00 Build 0)  -->
<!DOCTYPE svg PUBLIC "-//W3C//DTD SVG 1.1//EN" "http://www.w3.org/Graphics/SVG/1.1/DTD/svg11.dtd">
<svg version="1.1" id="Layer_2" xmlns="http://www.w3.org/2000/svg" xmlns:xlink="http://www.w3.org/1999/xlink" x="0px" y="0px"
	 width="298px" height="84px" viewBox="0 0 298 84" enable-background="new 0 0 298 84" xml:space="preserve">
<g>
	<g>
		<path fill="#ABCBE0" d="M11.917,11.637V11.63h0.007C11.921,11.633,11.919,11.635,11.917,11.637z M47.239,46.961h0.005v-0.005
			C47.242,46.957,47.24,46.959,47.239,46.961z M47.244,11.634V11.63H47.24C47.241,11.631,47.242,11.633,47.244,11.634z
			 M11.917,46.952v0.009h0.009C11.922,46.958,11.92,46.955,11.917,46.952z M11.924,11.63h11.441V5.103
			C18.968,6.23,15.037,8.519,11.924,11.63z M29.581,4.318c-1.913,0-3.772,0.219-5.562,0.626v6.686h11.121V4.944
			C33.353,4.537,31.492,4.318,29.581,4.318z M35.795,5.104v6.527H47.24C44.127,8.519,40.194,6.229,35.795,5.104z M47.244,11.634
			V23.08h6.529C52.646,18.68,50.357,14.747,47.244,11.634z M53.934,23.733h-6.689v11.124h6.689c0.406-1.79,0.625-3.65,0.625-5.562
			C54.559,27.382,54.34,25.523,53.934,23.733z M47.244,46.956c3.113-3.115,5.402-7.047,6.529-11.446h-6.529V46.956z M35.795,46.961
			v6.526c4.398-1.127,8.33-3.415,11.444-6.526H35.795z M24.02,53.646c1.789,0.407,3.648,0.626,5.562,0.626
			c1.911,0,3.771-0.219,5.56-0.626v-6.686H24.02V53.646z M23.365,53.487v-6.526h-11.44C15.038,50.072,18.969,52.36,23.365,53.487z
			 M11.917,46.952V35.51H5.391C6.518,39.907,8.806,43.839,11.917,46.952z M4.605,29.295c0,1.912,0.219,3.773,0.626,5.562h6.685
			V23.733l-6.686,0.001C4.825,25.523,4.605,27.382,4.605,29.295z M5.39,23.08l6.526,0V11.637C8.805,14.75,6.517,18.682,5.39,23.08z
			 M47.244,23.611v-0.408H35.672V11.63h-0.408v11.573H23.898V11.63h-0.41v11.573H11.917v0.408h11.572v11.368H11.917v0.408h11.572
			v11.574h0.41V35.387h11.365v11.574h0.408V35.387h11.572v-0.408H35.672V23.611H47.244z"/>
		<g>
			<g>
				<path fill="#ABCBE0" d="M58.423,42.886h-1.317v4.057h-1.173v-4.057h-1.46v-0.93h4.192L58.423,42.886z"/>
				<path fill="#ABCBE0" d="M63.16,46.943V44.4c0-0.182,0-0.386,0.007-0.538H63.16c-0.045,0.106-0.25,0.402-0.333,0.53l-0.817,1.227
					h-0.507l-0.931-1.271c-0.106-0.144-0.227-0.295-0.333-0.485h-0.015c0.007,0.167,0.007,0.364,0.007,0.5v2.581h-1.15v-4.987h1.044
					l1.249,1.74c0.151,0.211,0.272,0.393,0.386,0.59h0.015c0.091-0.182,0.212-0.394,0.363-0.628l1.12-1.702h1.052v4.987H63.16z"/>
			</g>
		</g>
	</g>
	<g>
		<g>
			<g>
				<path fill="#ABCBE0" d="M85.877,46.978c-4.494-7.125-7.123-11.832-8.565-11.832h-2.799v11.832h-3.095V19.033h5.555
					c6.784,0,9.456,3.436,9.456,7.633c0,4.029-2.46,6.275-5.47,7.422v0.084c0.89,0.467,4.07,5.639,8.607,12.806H85.877z
					 M77.185,21.916h-2.672v10.348h2.502c3.604,0,6.064-2.332,6.064-5.344C83.079,24.25,81.637,21.916,77.185,21.916z"/>
				<path fill="#ABCBE0" d="M106.018,44.899c-1.568,1.611-3.773,2.502-6.36,2.502c-2.502,0-4.664-0.848-6.233-2.459
					c-1.823-1.867-2.799-4.707-2.799-8.015c0-3.307,1.018-6.064,2.799-7.93c1.611-1.654,3.774-2.586,6.275-2.586
					c2.587,0,4.75,0.932,6.361,2.586c1.78,1.865,2.799,4.623,2.799,7.93C108.859,40.236,107.841,43.034,106.018,44.899z
					 M99.699,29.041c-3.773,0-5.937,3.053-5.937,7.803c0,4.748,2.248,7.886,5.979,7.886s5.979-3.138,5.979-7.886
					C105.721,32.093,103.559,29.041,99.699,29.041z"/>
				<path fill="#ABCBE0" d="M122.553,47.401c-5.598,0-10.305-3.266-10.305-10.177c0-6.232,4.495-10.813,10.348-10.813
					c1.441,0,2.459,0.127,3.265,0.34v-9.797h3.095V45.96C127.727,46.681,125.394,47.401,122.553,47.401z M125.86,29.634
					c-0.806-0.297-1.526-0.51-3.096-0.51c-3.943,0-7.378,3.096-7.378,7.889c0,4.537,2.502,7.759,7.717,7.759
					c1.018,0,2.121-0.213,2.757-0.51V29.634z"/>
				<path fill="#ABCBE0" d="M135.865,22.722c-1.188,0-2.163-0.975-2.163-2.162s0.976-2.164,2.163-2.164s2.162,0.977,2.162,2.164
					S137.053,22.722,135.865,22.722z M134.338,46.978V26.919h3.096v20.058H134.338z"/>
				<path fill="#ABCBE0" d="M155.625,46.978V34.638c0-2.502-0.425-5.301-3.479-5.301c-2.459,0-4.706,1.738-6.232,3.053v14.587
					h-3.096V26.919h2.544l0.425,2.418c2.205-1.697,4.367-2.926,7.166-2.926c2.883,0,5.767,2.078,5.767,7.082v13.484H155.625z"/>
			</g>
		</g>
		<g>
			<path fill="#ABCBE0" d="M96.129,62.124l-5.017,14.763h-1.539l-2.603-7.197c-0.307-0.878-0.549-1.623-0.725-2.233h-0.047
				c-0.191,0.654-0.433,1.39-0.726,2.207l-2.68,7.224h-1.537l-5.152-14.763H78.3l3.148,9.495c0.261,0.805,0.479,1.542,0.654,2.212
				h0.045c0.104-0.371,0.349-1.1,0.736-2.186l2.411-6.674l-1.007-2.848h2.052l3.234,9.366c0.192,0.505,0.451,1.257,0.777,2.252
				h0.044c0.163-0.669,0.37-1.398,0.622-2.187l3.041-9.432H96.129z"/>
			<path fill="#ABCBE0" d="M101.904,66.005c1.546,0,2.772,0.543,3.68,1.627c0.862,1.012,1.293,2.313,1.293,3.902
				c0,1.592-0.431,2.893-1.293,3.902c-0.907,1.071-2.141,1.606-3.702,1.606c-1.397,0-2.535-0.431-3.412-1.294
				c-1.011-1.01-1.517-2.408-1.517-4.191c0-1.562,0.424-2.862,1.271-3.903C99.146,66.555,100.373,66.005,101.904,66.005z
				 M101.893,67.632c-0.925,0-1.645,0.35-2.16,1.049s-0.772,1.643-0.772,2.832c0,1.174,0.265,2.118,0.794,2.832
				c0.53,0.713,1.257,1.07,2.183,1.07c0.91,0,1.627-0.357,2.149-1.07c0.522-0.714,0.784-1.658,0.784-2.832
				c0-1.189-0.261-2.133-0.784-2.832C103.564,67.981,102.833,67.632,101.893,67.632z"/>
			<path fill="#ABCBE0" d="M113.835,76.619c-0.535,0.282-1.078,0.424-1.628,0.424c-1.353,0-2.029-0.691-2.029-2.074V61.031h1.962
				v13.067c0,0.387,0.045,0.662,0.134,0.826c0.104,0.223,0.334,0.334,0.691,0.334c0.208,0,0.416-0.029,0.625-0.09L113.835,76.619z"
				/>
			<path fill="#ABCBE0" d="M122.688,75.973c-0.981,0.714-1.993,1.07-3.033,1.07c-1.591,0-2.386-0.772-2.386-2.319v-6.868h-1.762
				v-1.583h1.762v-2.364l2.007-0.624v2.988h3.233l-0.642,1.583h-2.591v6.218c0,0.85,0.34,1.275,1.019,1.275
				c0.591,0,1.196-0.238,1.817-0.715L122.688,75.973z"/>
			<path fill="#ABCBE0" d="M133.727,71.958h-6.757c0,0.961,0.297,1.766,0.892,2.416c0.595,0.649,1.405,0.975,2.431,0.975
				c0.877,0,1.732-0.238,2.564-0.715l0.558,1.316c-0.966,0.729-2.133,1.093-3.501,1.093c-1.621,0-2.884-0.572-3.791-1.718
				c-0.818-1.025-1.227-2.334-1.227-3.924c0-1.547,0.409-2.832,1.227-3.858c0.817-1.026,1.896-1.538,3.233-1.538
				c1.368,0,2.438,0.494,3.211,1.482c0.773,0.988,1.16,2.309,1.16,3.958V71.958z M131.63,70.42c0-0.759-0.192-1.397-0.577-1.918
				c-0.429-0.595-0.999-0.892-1.709-0.892c-0.71,0-1.284,0.271-1.72,0.813c-0.437,0.543-0.655,1.208-0.655,1.996H131.63z"/>
			<path fill="#ABCBE0" d="M143.003,66.361l-0.776,1.829c-0.311-0.164-0.673-0.246-1.087-0.246c-0.725,0-1.456,0.387-2.195,1.16
				v7.715h-2.007V66.272h1.65l0.245,1.182c1.056-0.967,2.044-1.449,2.966-1.449C142.259,66.005,142.661,66.124,143.003,66.361z"/>
			<path fill="#ABCBE0" d="M151.477,73.876c0,1.057-0.409,1.866-1.227,2.432c-0.714,0.49-1.666,0.735-2.854,0.735
				c-1.293,0-2.423-0.29-3.39-0.87l0.716-1.494c0.821,0.551,1.709,0.825,2.665,0.825c0.627,0,1.13-0.126,1.511-0.379
				c0.38-0.253,0.571-0.603,0.571-1.048c0-0.625-0.418-1.145-1.254-1.561c-0.777-0.387-1.554-0.773-2.33-1.16
				c-0.837-0.595-1.255-1.412-1.255-2.453c0-0.848,0.315-1.542,0.948-2.085c0.632-0.542,1.542-0.813,2.731-0.813
				c1.011,0,1.94,0.186,2.788,0.557v1.695c-1.026-0.432-1.933-0.646-2.721-0.646c-1.204,0-1.806,0.4-1.806,1.203
				c0,0.566,0.424,1.057,1.271,1.473c1.531,0.758,2.319,1.152,2.364,1.182C151.053,72.063,151.477,72.865,151.477,73.876z"/>
			<path fill="#ABCBE0" d="M171.717,76.819h-2.557l-5.642-6.578v6.578h-2.007V62.124h2.007v6.602l5.308-6.602h2.346l-5.938,7.206
				L171.717,76.819z"/>
			<path fill="#ABCBE0" d="M177.99,76.619c-0.535,0.282-1.078,0.424-1.627,0.424c-1.354,0-2.029-0.691-2.029-2.074V61.031h1.961
				v13.067c0,0.387,0.045,0.662,0.135,0.826c0.104,0.223,0.334,0.334,0.691,0.334c0.207,0,0.416-0.029,0.623-0.09L177.99,76.619z"/>
			<path fill="#ABCBE0" d="M189.385,76.819h-1.605l-0.424-1.07c-0.996,0.863-2.117,1.294-3.367,1.294
				c-0.877,0-1.605-0.253-2.186-0.759c-0.758-0.654-1.137-1.68-1.137-3.077v-6.935h2.008v6.779c0,1.561,0.658,2.341,1.975,2.341
				c0.977,0,1.826-0.409,2.551-1.227v-7.894h1.963v6.623C189.162,75.095,189.236,76.403,189.385,76.819z"/>
			<path fill="#ABCBE0" d="M207.492,66.272l-3.613,10.614h-1.65l-2.547-8.071l-0.053,0.001l-2.555,8.07h-1.623l-3.613-10.614h2.025
				l2.473,7.955l0.051,0.006l2.498-7.961h1.672l2.543,7.982h0.066l2.432-7.982H207.492z"/>
			<path fill="#ABCBE0" d="M218.086,71.958h-6.758c0,0.961,0.299,1.766,0.893,2.416c0.594,0.649,1.404,0.975,2.432,0.975
				c0.877,0,1.73-0.238,2.564-0.715l0.557,1.316c-0.967,0.729-2.133,1.093-3.502,1.093c-1.619,0-2.883-0.572-3.789-1.718
				c-0.818-1.025-1.227-2.334-1.227-3.924c0-1.547,0.408-2.832,1.227-3.858c0.816-1.026,1.895-1.538,3.232-1.538
				c1.367,0,2.438,0.494,3.211,1.482s1.16,2.309,1.16,3.958V71.958z M215.99,70.42c0-0.759-0.193-1.397-0.578-1.918
				c-0.43-0.595-0.998-0.892-1.709-0.892c-0.709,0-1.283,0.271-1.719,0.813c-0.438,0.543-0.656,1.208-0.656,1.996H215.99z"/>
			<path fill="#ABCBE0" d="M227.363,66.361l-0.777,1.829c-0.311-0.164-0.672-0.246-1.086-0.246c-0.725,0-1.457,0.387-2.195,1.16
				v7.715h-2.008V66.272h1.65l0.246,1.182c1.055-0.967,2.043-1.449,2.965-1.449C226.619,66.005,227.02,66.124,227.363,66.361z"/>
			<path fill="#ABCBE0" d="M251.4,76.819h-2.006V70.04c0-0.742-0.096-1.293-0.287-1.649c-0.25-0.431-0.693-0.647-1.326-0.647
				c-0.941,0-1.959,0.484-3.047,1.45c0,0.104,0,0.282,0,0.535v7.091h-2.008v-6.734c0-1.561-0.545-2.342-1.635-2.342
				c-0.912,0-1.922,0.491-3.025,1.473v7.604h-2.008V66.272h1.65l0.246,1.227c1.262-0.996,2.504-1.494,3.723-1.494
				c1.324,0,2.209,0.572,2.654,1.717c1.264-1.145,2.535-1.717,3.813-1.717c2.172,0,3.256,1.137,3.256,3.411V76.819z"/>
			<path fill="#ABCBE0" d="M263.131,76.819h-1.629l-0.445-1.003c-0.861,0.817-1.918,1.227-3.166,1.227
				c-0.922,0-1.703-0.302-2.342-0.903s-0.959-1.394-0.959-2.375c0-1.055,0.371-1.885,1.111-2.486s1.799-0.926,3.178-0.971
				l2.045-0.066V69.84c0-1.472-0.734-2.208-2.199-2.208c-0.963,0-1.875,0.305-2.732,0.914l-0.734-1.338
				c1.146-0.803,2.432-1.203,3.859-1.203c2.541,0,3.813,1.219,3.813,3.656v3.546C262.93,75.229,262.996,76.434,263.131,76.819z
				 M260.924,74.366v-2.541l-1.896,0.066c-1.65,0.06-2.475,0.632-2.475,1.717c0,0.535,0.166,0.967,0.502,1.293
				c0.334,0.328,0.813,0.491,1.438,0.491C259.43,75.393,260.238,75.051,260.924,74.366z M262.262,61.7l-2.766,3.278h-1.695
				l1.939-3.278H262.262z"/>
			<path fill="#ABCBE0" d="M272.631,66.361l-0.777,1.829c-0.311-0.164-0.672-0.246-1.086-0.246c-0.725,0-1.457,0.387-2.195,1.16
				v7.715h-2.008V66.272h1.65l0.246,1.182c1.055-0.967,2.043-1.449,2.965-1.449C271.887,66.005,272.287,66.124,272.631,66.361z"/>
			<path fill="#ABCBE0" d="M283.594,76.819h-2.445l-4.305-5.285v5.285h-1.961V61.031h1.961v8.921l3.746-3.68h2.453l-4.572,4.363
				L283.594,76.819z"/>
			<path fill="#ABCBE0" d="M293.838,76.819h-1.65l-0.424-1.003c-0.863,0.817-1.926,1.227-3.189,1.227
				c-0.922,0-1.701-0.302-2.342-0.903c-0.639-0.602-0.959-1.394-0.959-2.375c0-1.055,0.371-1.885,1.111-2.486
				c0.742-0.602,1.801-0.926,3.178-0.971l2.045-0.066V69.84c0-1.472-0.727-2.208-2.176-2.208c-0.963,0-1.881,0.305-2.756,0.914
				l-0.732-1.338c1.145-0.803,2.432-1.203,3.857-1.203c2.543,0,3.814,1.219,3.814,3.656v3.546
				C293.615,75.229,293.689,76.434,293.838,76.819z M291.607,74.366v-2.541l-1.898,0.066c-1.619,0.06-2.428,0.632-2.428,1.717
				c0,0.535,0.166,0.967,0.496,1.293c0.332,0.328,0.807,0.491,1.424,0.491C290.113,75.393,290.916,75.051,291.607,74.366z"/>
		</g>
	</g>
</g>
</svg>
