<?xml version="1.0" encoding="utf-8"?>
<!-- Generator: Adobe Illustrator 16.0.3, SVG Export Plug-In . SVG Version: 6.00 Build 0)  -->
<!DOCTYPE svg PUBLIC "-//W3C//DTD SVG 1.1//EN" "http://www.w3.org/Graphics/SVG/1.1/DTD/svg11.dtd">
<svg version="1.1" id="Layer_1" xmlns="http://www.w3.org/2000/svg" xmlns:xlink="http://www.w3.org/1999/xlink" x="0px" y="0px"
	 width="517.5px" height="104px" viewBox="0 0 517.5 104" enable-background="new 0 0 517.5 104" xml:space="preserve">
<g>
	<path fill="#5A9FDC" d="M52.591,40.613c4.382,4.426,4.382,11.602,0,16.028c-4.383,4.426-11.488,4.426-15.871,0
		c-4.382-4.426-4.382-11.602,0-16.028C41.103,36.187,48.208,36.187,52.591,40.613 M26.64,66.827c-9.951-10.05-9.951-26.343,0-36.392
		c9.951-10.05,26.084-10.05,36.035,0c6.987,7.056,9.061,17.19,6.235,26.081l12.211,3.676c4.113-13.271,0.974-28.34-9.438-38.854
		c-14.926-15.075-39.126-15.075-54.051,0c-14.927,15.074-14.927,39.515,0,54.588C28.063,86.46,43.02,89.622,56.179,85.434
		L52.538,73.1C43.718,75.99,33.647,73.904,26.64,66.827z M88.5,81.99c0,0-7.44-5.734-11.827-9.895
		c-6.61-6.267-12.151-10.773-12.151-10.773s-0.924,2.146-3.049,4.291c-2.124,2.146-4.248,3.078-4.248,3.078
		s4.315,5.359,10.394,11.971c3.611,3.927,10.07,12.247,10.07,12.247s8.748,8.923,14.114,3.942C97.535,91.529,88.5,81.99,88.5,81.99z
		 M145.919,29.89c3.885,0,7.652,1.242,11.007,3.711l4.968-2.722c-3.99-4.111-9.208-6.664-15.977-6.664
		c-12.301,0-20.768,7.475-20.768,21.858v12.08c0,14.383,8.467,21.81,20.768,21.81c6.769,0,11.987-2.506,15.977-6.616l-4.968-2.723
		c-3.355,2.469-7.122,3.711-11.007,3.711c-8.094,0-14.076-5.059-14.076-16.182v-12.08C131.843,34.948,137.825,29.89,145.919,29.89z
		 M196.083,3.794h-7.118l-5.568,12.546h4.827L196.083,3.794z M174.658,54.35v8.909c0,8.091,5.082,11.519,12.956,11.519
		c5.598,0,10.491-1.545,14.525-4.309l3.678,3.409c-4.651,3.832-10.757,6.3-18.676,6.3c-12.358,0-19.015-6.816-19.015-17.521V43.688
		c0-12.399,7.976-19.473,20.679-19.473c12.902,0,19.51,7.49,19.51,19.241V54.35H174.658z M174.819,49.657h27.164v-6.43
		c0-10.317-6.82-13.489-13.318-13.489c-7.027,0-13.846,3.518-13.846,13.72V49.657L174.819,49.657z M255.631,25.23v57.633
		c0,12.031-7.733,17.404-18.085,17.404c-6.849,0-13.246-2.041-18.764-5.588l2.745-3.975c4.308,2.602,9.044,4.195,14.377,4.195
		c7.876,0,12.897-2.932,13.034-11.5v-7.385c-3.91,1.875-9.597,2.981-14.862,2.981c-10.537-0.032-19.677-4.61-19.677-18.158v-18.36
		c0-13.652,10.392-18.156,20.544-18.156c5.251,0,10.748,1.201,15.157,3.7l0.139-2.793H255.631z M248.938,32.825
		c-3.7-1.892-8.45-3.012-13.128-3.012c-8.283,0-14.688,3.785-14.718,12.565v18.031c0,10.06,6.169,13.397,14.217,13.397
		c5.09,0,10.357-1.285,13.629-2.781V32.825L248.938,32.825z M270.23,2.766c-2.063,0-3.797,1.344-3.797,3.735
		c0,2.232,1.586,3.834,3.797,3.834c2.367,0,3.697-1.75,3.697-3.834C273.93,4.267,272.443,2.766,270.23,2.766z M266.835,78.992h6.692
		V25.176h-6.692V78.992z M305.02,24.273c-5.167,0-10.703,1.184-15.291,3.693l-0.138-2.793h-5.392v53.823h6.691V32.737
		c3.729-1.879,8.537-3.01,13.246-3.01c8.277,0,14.601,3.721,14.601,13.089v36.18h6.691V42.502
		C325.43,29.045,315.516,24.273,305.02,24.273z M335.534,20.479v58.517h6.691V30.583h14.07v-5.41h-14.07v-3.935
		c0.007-9.085,4.874-12.646,10.544-12.883c1.172-0.112,2.747,0.035,4.5,0.315V3.054c-1.491-0.269-2.985-0.417-4.561-0.417
		C344.358,2.637,335.534,7.07,335.534,20.479z M402.207,45.457v13.352c0,10.635-5.573,21.154-20.62,21.154
		c-14.951,0-20.921-10.449-20.921-21.156v-13.35c0-13.638,7.355-21.396,20.979-21.396C394.932,24.061,402.207,32.474,402.207,45.457
		z M395.515,45.456c0-9.777-4.992-15.719-13.928-15.719c-9.389,0-14.228,5.365-14.228,15.72v13.35c0,8.17,4.185,15.52,14.227,15.52
		c10.005,0,13.928-7.334,13.928-15.52L395.515,45.456z M411.262,71.232c-2.18,0-4.011,1.851-4.011,4.051
		c0,2.201,1.831,4.035,4.011,4.035s4.011-1.834,4.011-4.035C415.271,73.083,413.44,71.232,411.262,71.232z M442.942,24.274
		c-4.874,0-10.017,1.032-14.297,3.196l0.003-23.676h-6.693v75.202h6.693V32.737c3.805-1.879,8.689-3.086,13.476-3.086
		c8.201,0,14.369,3.721,14.369,13.165v36.181h6.691V42.502C463.186,28.702,453.104,24.274,442.942,24.274z M506.915,25.173v46.259
		c-3.729,1.879-8.538,3.01-13.247,3.01c-8.277,0-14.597-3.721-14.597-13.088V25.173h-6.693v36.495
		c0,13.482,9.95,18.188,20.467,18.188c5.192,0,10.683-1.16,15.233-3.653l0.138,2.794h5.394V25.173H506.915z"/>
</g>
</svg>
