<?xml version="1.0" encoding="utf-8"?>
<!-- Generator: Adobe Illustrator 16.0.3, SVG Export Plug-In . SVG Version: 6.00 Build 0)  -->
<!DOCTYPE svg PUBLIC "-//W3C//DTD SVG 1.1//EN" "http://www.w3.org/Graphics/SVG/1.1/DTD/svg11.dtd">
<svg version="1.1" id="Layer_3" xmlns="http://www.w3.org/2000/svg" xmlns:xlink="http://www.w3.org/1999/xlink" x="0px" y="0px"
	 width="299.5px" height="79.5px" viewBox="0 0 299.5 79.5" enable-background="new 0 0 299.5 79.5" xml:space="preserve">
<g>
	<g>
		<g>
			<g>
				<path fill="#FFFFFF" d="M72.531,54.123c-0.714,0-1.974-0.169-2.562-0.381l0.588-2.63c0.672,0.255,1.554,0.34,2.268,0.34
					c2.897,0,3.611-2.29,3.611-6.106V18.504h3.065v26.842C79.501,50.688,78.242,54.123,72.531,54.123z"/>
				<path fill="#FFFFFF" d="M98.859,44.37c-1.554,1.611-3.737,2.502-6.299,2.502c-2.478,0-4.619-0.848-6.173-2.459
					c-1.806-1.866-2.771-4.707-2.771-8.015s1.008-6.063,2.771-7.93c1.596-1.653,3.737-2.587,6.215-2.587
					c2.562,0,4.703,0.934,6.299,2.587c1.764,1.866,2.771,4.622,2.771,7.93S100.665,42.505,98.859,44.37z M92.603,28.512
					c-3.737,0-5.879,3.053-5.879,7.802s2.226,7.888,5.921,7.888s5.921-3.139,5.921-7.888S96.424,28.512,92.603,28.512z"/>
				<path fill="#FFFFFF" d="M112.296,56.498c-6.005,0-9.364-2.672-9.364-5.979c0-2.204,1.512-3.815,3.779-5.003
					c-1.092-0.594-1.386-1.526-1.386-2.46c0-0.975,0.672-2.459,2.268-3.816c-2.058-1.188-3.275-3.562-3.275-6.063
					c0-4.198,3.359-7.294,7.391-7.294c1.47,0,2.52,0.17,3.485,0.679c0.252,0.127,0.378,0.085,0.504-0.042
					c1.008-0.934,3.065-1.823,5.543-1.399l-0.882,2.799c-1.05-0.255-2.058-0.34-2.897,0.084c1.47,1.357,2.31,3.096,2.31,5.216
					c0,4.368-3.191,7.379-7.811,7.379c-0.924,0-1.764-0.127-2.52-0.424c-0.63,0.678-1.008,1.314-1.008,2.332
					c0,2.926,13.731-0.085,13.731,7.505C122.165,53.317,119.225,56.498,112.296,56.498z M108.979,46.448
					c-1.092,0.679-2.855,1.823-2.855,3.731c0,2.078,2.52,3.731,6.383,3.731c3.905,0,6.257-1.441,6.257-3.604
					C118.763,46.703,111.583,47.169,108.979,46.448z M112.002,28.554c-2.688,0-4.535,1.823-4.535,4.622s1.848,4.792,4.535,4.792
					c2.604,0,4.577-1.696,4.577-4.75C116.58,30.42,114.648,28.554,112.002,28.554z"/>
				<path fill="#FFFFFF" d="M129.848,46.872c-2.897,0-4.283-1.696-4.283-4.282V28.936h-3.233v-2.545h3.233v-4.409l3.065-1.061v5.47
					h6.089l-1.092,2.545h-4.997v12.933c0,1.654,0.63,2.333,2.016,2.333c1.47,0,2.646-0.637,3.401-1.061l0.924,2.205
					C133.585,46.193,131.864,46.872,129.848,46.872z"/>
				<path fill="#FFFFFF" d="M149.835,46.448l-0.798-1.95c-1.218,1.187-3.149,2.374-6.089,2.374c-3.233,0-6.089-2.332-6.089-6.148
					c0-3.943,2.729-6.36,7.979-6.53l4.031-0.127c0-0.297,0-0.764,0-1.272c0-3.096-1.68-4.24-4.199-4.24
					c-2.268,0-3.947,0.891-5.291,1.866l-1.26-2.248c2.268-1.611,4.451-2.29,6.887-2.29c3.863,0,6.929,1.654,6.929,6.785v6.106
					c0,5.682,0.168,7.039,0.42,7.675H149.835z M148.87,36.822l-3.737,0.128c-3.695,0.127-5.207,1.356-5.207,3.688
					c0,1.908,1.26,3.563,3.863,3.563s4.157-1.314,5.081-2.29V36.822z M146.056,23.932h-2.604l2.436-6.233h4.031L146.056,23.932z"/>
				<path fill="#FFFFFF" d="M166.043,29.486c-0.42-0.169-1.05-0.339-1.806-0.339c-1.344,0-2.771,0.806-4.451,2.417v14.884h-3.065
					V26.391h2.52l0.42,2.29c2.729-2.502,4.241-2.799,5.501-2.799c1.05,0,1.806,0.34,2.184,0.594L166.043,29.486z"/>
			</g>
		</g>
	</g>
	<g>
		<g>
			<g>
				<path fill="#FFFFFF" d="M12.917,11.137V11.13h0.007C12.921,11.133,12.919,11.135,12.917,11.137z M48.239,46.461h0.005v-0.005
					C48.242,46.457,48.24,46.459,48.239,46.461z M48.244,11.134V11.13H48.24C48.241,11.131,48.242,11.133,48.244,11.134z
					 M12.917,46.452v0.009h0.009C12.922,46.458,12.92,46.455,12.917,46.452z M12.924,11.13h11.441V4.603
					C19.968,5.73,16.037,8.019,12.924,11.13z M30.581,3.818c-1.913,0-3.772,0.219-5.562,0.626v6.686h11.121V4.444
					C34.353,4.037,32.492,3.818,30.581,3.818z M36.795,4.604v6.527H48.24C45.127,8.019,41.194,5.729,36.795,4.604z M48.244,11.134
					V22.58h6.529C53.646,18.18,51.357,14.247,48.244,11.134z M54.934,23.233h-6.689v11.124h6.689c0.406-1.79,0.625-3.65,0.625-5.562
					C55.559,26.882,55.34,25.023,54.934,23.233z M48.244,46.456c3.113-3.115,5.402-7.047,6.529-11.446h-6.529V46.456z
					 M36.795,46.461v6.526c4.398-1.127,8.33-3.415,11.444-6.526H36.795z M25.02,53.146c1.789,0.407,3.648,0.626,5.562,0.626
					c1.911,0,3.771-0.219,5.56-0.626v-6.686H25.02V53.146z M24.365,52.987v-6.526h-11.44C16.038,49.572,19.969,51.86,24.365,52.987z
					 M12.917,46.452V35.01H6.391C7.518,39.407,9.806,43.339,12.917,46.452z M5.605,28.795c0,1.912,0.219,3.773,0.626,5.562h6.685
					V23.233l-6.686,0.001C5.825,25.023,5.605,26.882,5.605,28.795z M6.39,22.58l6.526,0V11.137C9.805,14.25,7.517,18.182,6.39,22.58
					z M48.244,23.111v-0.408H36.672V11.13h-0.408v11.573H24.898V11.13h-0.41v11.573H12.917v0.408h11.572v11.368H12.917v0.408h11.572
					v11.574h0.41V34.887h11.365v11.574h0.408V34.887h11.572v-0.408H36.672V23.111H48.244z"/>
				<g>
					<g>
						<path fill="#FFFFFF" d="M59.423,42.386h-1.317v4.057h-1.173v-4.057h-1.46v-0.93h4.192L59.423,42.386z"/>
						<path fill="#FFFFFF" d="M64.16,46.443V43.9c0-0.182,0-0.386,0.007-0.538H64.16c-0.045,0.106-0.25,0.402-0.333,0.53
							l-0.817,1.227h-0.507l-0.931-1.271c-0.106-0.144-0.227-0.295-0.333-0.485h-0.015c0.007,0.167,0.007,0.364,0.007,0.5v2.581
							h-1.15v-4.987h1.044l1.249,1.74c0.151,0.211,0.272,0.393,0.386,0.59h0.015c0.091-0.182,0.212-0.394,0.363-0.628l1.12-1.702
							h1.052v4.987H64.16z"/>
					</g>
				</g>
			</g>
			<g>
				<g>
					<path fill="#FFFFFF" d="M97.129,61.624l-5.017,14.763h-1.539l-2.603-7.197c-0.307-0.878-0.549-1.623-0.725-2.233h-0.047
						c-0.191,0.654-0.433,1.39-0.726,2.207l-2.68,7.224h-1.537l-5.152-14.763H79.3l3.148,9.495c0.261,0.805,0.479,1.542,0.654,2.212
						h0.045c0.104-0.371,0.349-1.1,0.736-2.186l2.411-6.674l-1.007-2.848h2.052l3.234,9.366c0.192,0.505,0.451,1.257,0.777,2.252
						h0.044c0.163-0.669,0.37-1.398,0.622-2.187l3.041-9.432H97.129z"/>
					<path fill="#FFFFFF" d="M102.904,65.505c1.546,0,2.772,0.543,3.68,1.627c0.862,1.012,1.293,2.313,1.293,3.902
						c0,1.592-0.431,2.893-1.293,3.902c-0.907,1.071-2.141,1.606-3.702,1.606c-1.397,0-2.535-0.431-3.412-1.294
						c-1.011-1.01-1.517-2.408-1.517-4.191c0-1.562,0.424-2.862,1.271-3.903C100.146,66.055,101.373,65.505,102.904,65.505z
						 M102.893,67.132c-0.925,0-1.645,0.35-2.16,1.049s-0.772,1.643-0.772,2.832c0,1.174,0.265,2.118,0.794,2.832
						c0.53,0.713,1.257,1.07,2.183,1.07c0.91,0,1.627-0.357,2.149-1.07c0.522-0.714,0.784-1.658,0.784-2.832
						c0-1.189-0.261-2.133-0.784-2.832C104.564,67.481,103.833,67.132,102.893,67.132z"/>
					<path fill="#FFFFFF" d="M114.835,76.119c-0.535,0.282-1.078,0.424-1.628,0.424c-1.353,0-2.029-0.691-2.029-2.074V60.531h1.962
						v13.067c0,0.387,0.045,0.662,0.134,0.826c0.104,0.223,0.334,0.334,0.691,0.334c0.208,0,0.416-0.029,0.625-0.09L114.835,76.119z
						"/>
					<path fill="#FFFFFF" d="M123.688,75.473c-0.981,0.714-1.993,1.07-3.033,1.07c-1.591,0-2.386-0.772-2.386-2.319v-6.868h-1.762
						v-1.583h1.762v-2.364l2.007-0.624v2.988h3.233l-0.642,1.583h-2.591v6.218c0,0.85,0.34,1.275,1.019,1.275
						c0.591,0,1.196-0.238,1.817-0.715L123.688,75.473z"/>
					<path fill="#FFFFFF" d="M134.727,71.458h-6.757c0,0.961,0.297,1.766,0.892,2.416c0.595,0.649,1.405,0.975,2.431,0.975
						c0.877,0,1.732-0.238,2.564-0.715l0.558,1.316c-0.966,0.729-2.133,1.093-3.501,1.093c-1.621,0-2.884-0.572-3.791-1.718
						c-0.818-1.025-1.227-2.334-1.227-3.924c0-1.547,0.409-2.832,1.227-3.858c0.817-1.026,1.896-1.538,3.233-1.538
						c1.368,0,2.438,0.494,3.211,1.482c0.773,0.988,1.16,2.309,1.16,3.958V71.458z M132.63,69.92c0-0.759-0.192-1.397-0.577-1.918
						c-0.429-0.595-0.999-0.892-1.709-0.892c-0.71,0-1.284,0.271-1.72,0.813c-0.437,0.543-0.655,1.208-0.655,1.996H132.63z"/>
					<path fill="#FFFFFF" d="M144.003,65.861l-0.776,1.829c-0.311-0.164-0.673-0.246-1.087-0.246c-0.725,0-1.456,0.387-2.195,1.16
						v7.715h-2.007V65.772h1.65l0.245,1.182c1.056-0.967,2.044-1.449,2.966-1.449C143.259,65.505,143.661,65.624,144.003,65.861z"/>
					<path fill="#FFFFFF" d="M152.477,73.376c0,1.057-0.409,1.866-1.227,2.432c-0.714,0.49-1.666,0.735-2.854,0.735
						c-1.293,0-2.423-0.29-3.39-0.87l0.716-1.494c0.821,0.551,1.709,0.825,2.665,0.825c0.627,0,1.13-0.126,1.511-0.379
						c0.38-0.253,0.571-0.603,0.571-1.048c0-0.625-0.418-1.145-1.254-1.561c-0.777-0.387-1.554-0.773-2.33-1.16
						c-0.837-0.595-1.255-1.412-1.255-2.453c0-0.848,0.315-1.542,0.948-2.085c0.632-0.542,1.542-0.813,2.731-0.813
						c1.011,0,1.94,0.186,2.788,0.557v1.695c-1.026-0.432-1.933-0.646-2.721-0.646c-1.204,0-1.806,0.4-1.806,1.203
						c0,0.566,0.424,1.057,1.271,1.473c1.531,0.758,2.319,1.152,2.364,1.182C152.053,71.563,152.477,72.365,152.477,73.376z"/>
					<path fill="#FFFFFF" d="M172.717,76.319h-2.557l-5.642-6.578v6.578h-2.007V61.624h2.007v6.602l5.308-6.602h2.346l-5.938,7.206
						L172.717,76.319z"/>
					<path fill="#FFFFFF" d="M178.99,76.119c-0.535,0.282-1.078,0.424-1.627,0.424c-1.354,0-2.029-0.691-2.029-2.074V60.531h1.961
						v13.067c0,0.387,0.045,0.662,0.135,0.826c0.104,0.223,0.334,0.334,0.691,0.334c0.207,0,0.416-0.029,0.623-0.09L178.99,76.119z"
						/>
					<path fill="#FFFFFF" d="M190.385,76.319h-1.605l-0.424-1.07c-0.996,0.863-2.117,1.294-3.367,1.294
						c-0.877,0-1.605-0.253-2.186-0.759c-0.758-0.654-1.137-1.68-1.137-3.077v-6.935h2.008v6.779c0,1.561,0.658,2.341,1.975,2.341
						c0.977,0,1.826-0.409,2.551-1.227v-7.894h1.963v6.623C190.162,74.595,190.236,75.903,190.385,76.319z"/>
					<path fill="#FFFFFF" d="M208.492,65.772l-3.613,10.614h-1.65l-2.547-8.071l-0.053,0.001l-2.555,8.07h-1.623l-3.613-10.614
						h2.025l2.473,7.955l0.051,0.006l2.498-7.961h1.672l2.543,7.982h0.066l2.432-7.982H208.492z"/>
					<path fill="#FFFFFF" d="M219.086,71.458h-6.758c0,0.961,0.299,1.766,0.893,2.416c0.594,0.649,1.404,0.975,2.432,0.975
						c0.877,0,1.73-0.238,2.564-0.715l0.557,1.316c-0.967,0.729-2.133,1.093-3.502,1.093c-1.619,0-2.883-0.572-3.789-1.718
						c-0.818-1.025-1.227-2.334-1.227-3.924c0-1.547,0.408-2.832,1.227-3.858c0.816-1.026,1.895-1.538,3.232-1.538
						c1.367,0,2.438,0.494,3.211,1.482s1.16,2.309,1.16,3.958V71.458z M216.99,69.92c0-0.759-0.193-1.397-0.578-1.918
						c-0.43-0.595-0.998-0.892-1.709-0.892c-0.709,0-1.283,0.271-1.719,0.813c-0.438,0.543-0.656,1.208-0.656,1.996H216.99z"/>
					<path fill="#FFFFFF" d="M228.363,65.861l-0.777,1.829c-0.311-0.164-0.672-0.246-1.086-0.246c-0.725,0-1.457,0.387-2.195,1.16
						v7.715h-2.008V65.772h1.65l0.246,1.182c1.055-0.967,2.043-1.449,2.965-1.449C227.619,65.505,228.02,65.624,228.363,65.861z"/>
					<path fill="#FFFFFF" d="M252.4,76.319h-2.006V69.54c0-0.742-0.096-1.293-0.287-1.649c-0.25-0.431-0.693-0.647-1.326-0.647
						c-0.941,0-1.959,0.484-3.047,1.45c0,0.104,0,0.282,0,0.535v7.091h-2.008v-6.734c0-1.561-0.545-2.342-1.635-2.342
						c-0.912,0-1.922,0.491-3.025,1.473v7.604h-2.008V65.772h1.65l0.246,1.227c1.262-0.996,2.504-1.494,3.723-1.494
						c1.324,0,2.209,0.572,2.654,1.717c1.264-1.145,2.535-1.717,3.813-1.717c2.172,0,3.256,1.137,3.256,3.411V76.319z"/>
					<path fill="#FFFFFF" d="M264.131,76.319h-1.629l-0.445-1.003c-0.861,0.817-1.918,1.227-3.166,1.227
						c-0.922,0-1.703-0.302-2.342-0.903s-0.959-1.394-0.959-2.375c0-1.055,0.371-1.885,1.111-2.486s1.799-0.926,3.178-0.971
						l2.045-0.066V69.34c0-1.472-0.734-2.208-2.199-2.208c-0.963,0-1.875,0.305-2.732,0.914l-0.734-1.338
						c1.146-0.803,2.432-1.203,3.859-1.203c2.541,0,3.813,1.219,3.813,3.656v3.546C263.93,74.729,263.996,75.934,264.131,76.319z
						 M261.924,73.866v-2.541l-1.896,0.066c-1.65,0.06-2.475,0.632-2.475,1.717c0,0.535,0.166,0.967,0.502,1.293
						c0.334,0.328,0.813,0.491,1.438,0.491C260.43,74.893,261.238,74.551,261.924,73.866z M263.262,61.2l-2.766,3.278h-1.695
						l1.939-3.278H263.262z"/>
					<path fill="#FFFFFF" d="M273.631,65.861l-0.777,1.829c-0.311-0.164-0.672-0.246-1.086-0.246c-0.725,0-1.457,0.387-2.195,1.16
						v7.715h-2.008V65.772h1.65l0.246,1.182c1.055-0.967,2.043-1.449,2.965-1.449C272.887,65.505,273.287,65.624,273.631,65.861z"/>
					<path fill="#FFFFFF" d="M284.594,76.319h-2.445l-4.305-5.285v5.285h-1.961V60.531h1.961v8.921l3.746-3.68h2.453l-4.572,4.363
						L284.594,76.319z"/>
					<path fill="#FFFFFF" d="M294.838,76.319h-1.65l-0.424-1.003c-0.863,0.817-1.926,1.227-3.189,1.227
						c-0.922,0-1.701-0.302-2.342-0.903c-0.639-0.602-0.959-1.394-0.959-2.375c0-1.055,0.371-1.885,1.111-2.486
						c0.742-0.602,1.801-0.926,3.178-0.971l2.045-0.066V69.34c0-1.472-0.727-2.208-2.176-2.208c-0.963,0-1.881,0.305-2.756,0.914
						l-0.732-1.338c1.145-0.803,2.432-1.203,3.857-1.203c2.543,0,3.814,1.219,3.814,3.656v3.546
						C294.615,74.729,294.689,75.934,294.838,76.319z M292.607,73.866v-2.541l-1.898,0.066c-1.619,0.06-2.428,0.632-2.428,1.717
						c0,0.535,0.166,0.967,0.496,1.293c0.332,0.328,0.807,0.491,1.424,0.491C291.113,74.893,291.916,74.551,292.607,73.866z"/>
				</g>
			</g>
		</g>
	</g>
</g>
</svg>
