<?xml version="1.0" encoding="utf-8"?>
<!-- Generator: Adobe Illustrator 16.0.3, SVG Export Plug-In . SVG Version: 6.00 Build 0)  -->
<!DOCTYPE svg PUBLIC "-//W3C//DTD SVG 1.1//EN" "http://www.w3.org/Graphics/SVG/1.1/DTD/svg11.dtd">
<svg version="1.1" id="Layer_1" xmlns="http://www.w3.org/2000/svg" xmlns:xlink="http://www.w3.org/1999/xlink" x="0px" y="0px"
	 width="293.667px" height="91.333px" viewBox="-4.053 -3.463 293.667 91.333"
	 enable-background="new -4.053 -3.463 293.667 91.333" xml:space="preserve">
<g>
	<path fill="#ABCCE1" d="M92.347,82.651c-0.313,0.417-0.626,0.748-0.938,1.01c-0.331,0.243-0.73,0.452-1.201,0.626
		c-0.487,0.174-1.062,0.296-1.74,0.365c-0.678,0.069-1.513,0.104-2.487,0.104c-1.13,0-2.018-0.069-2.679-0.208
		s-1.148-0.348-1.427-0.609c-0.295-0.277-0.417-0.591-0.365-0.938c0.052-0.365,0.261-0.8,0.644-1.306l46.985-64.363
		c0.313-0.384,0.609-0.696,0.922-0.976c0.295-0.277,0.695-0.486,1.2-0.661c0.487-0.174,1.079-0.296,1.757-0.364
		c0.679-0.069,1.513-0.087,2.487-0.087c1.131,0,2.019,0.053,2.68,0.19c0.66,0.139,1.131,0.348,1.426,0.609
		c0.298,0.277,0.4,0.608,0.331,0.974c-0.068,0.383-0.277,0.8-0.607,1.271L92.347,82.651L92.347,82.651z"/>
	<g>
		<path fill="#ABCCE1" d="M153.692,67.098c0,2.722-0.366,5.2-1.073,7.445c-0.722,2.233-1.808,4.175-3.261,5.786
			c-1.453,1.624-3.271,2.881-5.469,3.76c-2.196,0.879-4.76,1.317-7.688,1.317c-2.832,0-5.298-0.39-7.396-1.171
			c-2.1-0.793-3.845-1.94-5.224-3.441s-2.405-3.344-3.076-5.541c-0.671-2.186-1-4.688-1-7.507c0-2.723,0.366-5.2,1.086-7.458
			c0.732-2.246,1.819-4.175,3.271-5.786c1.466-1.611,3.271-2.856,5.456-3.735c2.186-0.891,4.736-1.331,7.679-1.331
			c2.855,0,5.334,0.392,7.433,1.16c2.1,0.781,3.834,1.917,5.201,3.418c1.379,1.501,2.391,3.356,3.063,5.541
			C153.35,61.752,153.692,64.267,153.692,67.098L153.692,67.098z M144.426,67.464c0-1.575-0.121-3.027-0.377-4.345
			c-0.244-1.331-0.672-2.479-1.271-3.454c-0.599-0.978-1.393-1.746-2.381-2.283c-0.987-0.549-2.232-0.83-3.733-0.83
			c-1.331,0-2.503,0.244-3.503,0.732c-1.001,0.487-1.819,1.208-2.467,2.147c-0.646,0.939-1.123,2.075-1.451,3.394
			c-0.318,1.33-0.477,2.831-0.477,4.527c0,1.575,0.122,3.016,0.391,4.345c0.257,1.318,0.684,2.466,1.27,3.454
			c0.586,0.978,1.379,1.733,2.38,2.271c1.001,0.537,2.234,0.806,3.711,0.806c1.367,0,2.538-0.256,3.551-0.745
			c1.002-0.487,1.819-1.195,2.468-2.124c0.635-0.927,1.108-2.05,1.428-3.381C144.268,70.662,144.426,69.149,144.426,67.464
			L144.426,67.464z"/>
		<path fill="#ABCCE1" d="M187.547,83.369c0,0.243-0.074,0.451-0.209,0.635c-0.146,0.171-0.392,0.33-0.719,0.438
			c-0.33,0.123-0.795,0.208-1.382,0.27c-0.584,0.061-1.305,0.097-2.159,0.097c-0.879,0-1.611-0.036-2.197-0.097
			c-0.586-0.063-1.049-0.146-1.379-0.27c-0.33-0.108-0.572-0.268-0.719-0.438c-0.136-0.184-0.209-0.392-0.209-0.635v-18.2
			c0-1.55-0.109-2.758-0.343-3.649c-0.229-0.879-0.549-1.636-0.987-2.27c-0.429-0.623-0.978-1.111-1.66-1.465
			c-0.672-0.343-1.465-0.514-2.379-0.514c-1.138,0-2.295,0.415-3.468,1.245c-1.159,0.842-2.381,2.05-3.649,3.649v21.202
			c0,0.243-0.062,0.451-0.207,0.635c-0.146,0.171-0.391,0.33-0.732,0.438c-0.354,0.123-0.807,0.208-1.379,0.27
			c-0.574,0.061-1.295,0.097-2.186,0.097c-0.879,0-1.611-0.036-2.172-0.097c-0.574-0.063-1.037-0.146-1.379-0.27
			c-0.355-0.108-0.601-0.268-0.732-0.438c-0.146-0.184-0.221-0.392-0.221-0.635V51.475c0-0.231,0.061-0.452,0.184-0.623
			c0.121-0.183,0.33-0.33,0.646-0.452c0.305-0.122,0.709-0.208,1.194-0.269c0.49-0.062,1.101-0.085,1.845-0.085
			c0.758,0,1.393,0.023,1.893,0.085c0.5,0.061,0.891,0.146,1.158,0.269c0.281,0.122,0.477,0.27,0.586,0.452
			c0.123,0.171,0.184,0.392,0.184,0.623v3.688c1.771-1.904,3.564-3.346,5.383-4.298c1.818-0.951,3.724-1.428,5.701-1.428
			c2.172,0,4.004,0.354,5.492,1.074s2.697,1.685,3.613,2.917c0.916,1.22,1.574,2.661,1.977,4.309
			c0.416,1.647,0.611,3.625,0.611,5.933V83.369L187.547,83.369z"/>
		<path fill="#ABCCE1" d="M201.665,83.369c0,0.243-0.062,0.451-0.207,0.635c-0.146,0.171-0.392,0.33-0.732,0.438
			c-0.354,0.123-0.805,0.208-1.379,0.27c-0.574,0.061-1.295,0.097-2.186,0.097c-0.879,0-1.611-0.036-2.173-0.097
			c-0.573-0.063-1.036-0.146-1.379-0.27c-0.354-0.108-0.6-0.268-0.731-0.438c-0.146-0.184-0.221-0.392-0.221-0.635V36.352
			c0-0.244,0.073-0.452,0.221-0.646c0.133-0.195,0.377-0.354,0.731-0.477c0.343-0.134,0.806-0.231,1.379-0.305
			c0.562-0.073,1.294-0.11,2.173-0.11c0.891,0,1.61,0.037,2.186,0.11s1.025,0.171,1.379,0.305c0.342,0.122,0.586,0.281,0.732,0.477
			c0.146,0.194,0.207,0.402,0.207,0.646V83.369L201.665,83.369z"/>
		<path fill="#ABCCE1" d="M215.93,83.369c0,0.243-0.063,0.451-0.207,0.635c-0.146,0.171-0.391,0.33-0.731,0.438
			c-0.355,0.123-0.808,0.208-1.382,0.27c-0.571,0.061-1.293,0.097-2.184,0.097c-0.879,0-1.611-0.036-2.174-0.097
			c-0.572-0.063-1.037-0.146-1.379-0.27c-0.354-0.108-0.599-0.268-0.732-0.438c-0.146-0.184-0.219-0.392-0.219-0.635V51.548
			c0-0.244,0.072-0.452,0.219-0.623c0.135-0.183,0.379-0.342,0.732-0.464c0.342-0.134,0.807-0.232,1.379-0.306
			c0.563-0.072,1.295-0.109,2.174-0.109c0.891,0,1.611,0.037,2.184,0.109c0.574,0.073,1.025,0.172,1.382,0.306
			c0.342,0.122,0.586,0.281,0.731,0.464c0.146,0.171,0.207,0.378,0.207,0.623V83.369L215.93,83.369z M216.614,40.672
			c0,1.819-0.366,3.063-1.11,3.759c-0.732,0.696-2.111,1.038-4.113,1.038c-2.024,0-3.381-0.33-4.09-1
			c-0.707-0.672-1.062-1.868-1.062-3.613c0-1.807,0.365-3.063,1.099-3.771c0.721-0.708,2.1-1.063,4.127-1.063
			c2,0,3.367,0.342,4.076,1.025C216.258,37.73,216.614,38.939,216.614,40.672L216.614,40.672z"/>
		<path fill="#ABCCE1" d="M251.653,83.369c0,0.243-0.073,0.451-0.207,0.635c-0.146,0.171-0.391,0.33-0.721,0.438
			c-0.33,0.123-0.793,0.208-1.379,0.27c-0.586,0.061-1.307,0.097-2.16,0.097c-0.879,0-1.61-0.036-2.197-0.097
			c-0.586-0.063-1.051-0.146-1.381-0.27c-0.328-0.108-0.571-0.268-0.719-0.438c-0.135-0.184-0.207-0.392-0.207-0.635v-18.2
			c0-1.55-0.111-2.758-0.342-3.649c-0.232-0.879-0.551-1.636-0.99-2.27c-0.426-0.623-0.977-1.111-1.66-1.465
			c-0.67-0.343-1.465-0.514-2.379-0.514c-1.135,0-2.295,0.415-3.467,1.245c-1.16,0.842-2.381,2.05-3.65,3.649v21.202
			c0,0.243-0.061,0.451-0.207,0.635c-0.146,0.171-0.391,0.33-0.731,0.438c-0.354,0.123-0.805,0.208-1.379,0.27
			c-0.574,0.061-1.293,0.097-2.187,0.097c-0.879,0-1.608-0.036-2.172-0.097c-0.574-0.063-1.037-0.146-1.379-0.27
			c-0.354-0.108-0.598-0.268-0.731-0.438c-0.146-0.184-0.222-0.392-0.222-0.635V51.475c0-0.231,0.063-0.452,0.185-0.623
			c0.123-0.183,0.33-0.33,0.646-0.452c0.308-0.122,0.709-0.208,1.197-0.269c0.488-0.062,1.098-0.085,1.842-0.085
			c0.758,0,1.394,0.023,1.894,0.085c0.5,0.061,0.891,0.146,1.159,0.269c0.281,0.122,0.478,0.27,0.586,0.452
			c0.121,0.171,0.183,0.392,0.183,0.623v3.688c1.771-1.904,3.563-3.346,5.383-4.298c1.82-0.951,3.723-1.428,5.701-1.428
			c2.172,0,4.004,0.354,5.492,1.074c1.489,0.72,2.696,1.685,3.612,2.917c0.916,1.22,1.574,2.661,1.978,4.309
			c0.416,1.647,0.61,3.625,0.61,5.933V83.369L251.653,83.369z"/>
		<path fill="#ABCCE1" d="M286.227,66.5c0,1.086-0.244,1.903-0.731,2.429c-0.486,0.524-1.158,0.781-2.015,0.781h-19.42
			c0,1.367,0.16,2.6,0.478,3.699c0.33,1.109,0.842,2.05,1.539,2.831c0.707,0.77,1.61,1.367,2.721,1.771
			c1.111,0.403,2.44,0.61,3.992,0.61c1.573,0,2.953-0.122,4.137-0.342c1.197-0.231,2.234-0.476,3.102-0.757
			c0.867-0.269,1.586-0.524,2.16-0.745c0.574-0.231,1.037-0.342,1.392-0.342c0.221,0,0.403,0.037,0.537,0.122
			c0.146,0.085,0.27,0.232,0.366,0.452c0.086,0.208,0.158,0.513,0.195,0.916c0.035,0.391,0.049,0.879,0.049,1.477
			c0,0.525-0.014,0.978-0.037,1.344c-0.024,0.365-0.061,0.684-0.108,0.951c-0.037,0.257-0.111,0.477-0.207,0.659
			c-0.101,0.184-0.222,0.354-0.379,0.514c-0.158,0.171-0.574,0.402-1.271,0.684s-1.574,0.562-2.647,0.842
			c-1.074,0.269-2.295,0.514-3.675,0.708c-1.393,0.208-2.868,0.306-4.442,0.306c-2.832,0-5.322-0.354-7.457-1.074
			c-2.125-0.708-3.906-1.794-5.349-3.247c-1.428-1.452-2.489-3.295-3.196-5.505c-0.695-2.223-1.051-4.821-1.051-7.799
			c0-2.832,0.366-5.396,1.11-7.666c0.732-2.282,1.808-4.212,3.211-5.799c1.416-1.586,3.125-2.795,5.14-3.625
			c2.014-0.842,4.282-1.257,6.811-1.257c2.674,0,4.955,0.392,6.848,1.185c1.894,0.78,3.453,1.88,4.662,3.271
			c1.222,1.393,2.111,3.04,2.687,4.956c0.574,1.904,0.854,3.979,0.854,6.212V66.5H286.227z M277.5,63.925
			c0.074-2.527-0.429-4.516-1.515-5.957c-1.086-1.44-2.758-2.16-5.028-2.16c-1.146,0-2.136,0.208-2.978,0.635
			c-0.854,0.428-1.551,1.014-2.112,1.733c-0.562,0.733-0.988,1.587-1.293,2.576c-0.293,0.988-0.464,2.051-0.515,3.174L277.5,63.925
			L277.5,63.925z"/>
		<path fill="#ABCCE1" d="M29.147,49.092c0,0.341-0.122,0.598-0.366,0.793c-0.231,0.183-0.609,0.317-1.122,0.403
			c-0.513,0.085-1.27,0.134-2.271,0.134c-1.074,0-1.854-0.049-2.344-0.134s-0.83-0.221-1.038-0.403
			c-0.195-0.195-0.305-0.452-0.305-0.793v-2.539c-1.308,1.404-2.809,2.502-4.48,3.295c-1.685,0.781-3.552,1.172-5.603,1.172
			c-1.696,0-3.247-0.22-4.663-0.659c-1.416-0.438-2.648-1.099-3.687-1.965s-1.843-1.953-2.417-3.233C0.281,43.868,0,42.366,0,40.658
			c0-1.868,0.366-3.479,1.086-4.847c0.732-1.379,1.818-2.502,3.259-3.406c1.44-0.891,3.234-1.55,5.383-1.977
			s4.639-0.647,7.471-0.647h3.111v-1.928c0-1.001-0.098-1.88-0.306-2.625c-0.195-0.757-0.537-1.379-1-1.88s-1.086-0.867-1.855-1.11
			c-0.78-0.243-1.732-0.354-2.88-0.354c-1.501,0-2.844,0.159-4.027,0.5c-1.173,0.33-2.223,0.696-3.125,1.111
			c-0.903,0.402-1.66,0.769-2.271,1.099c-0.61,0.342-1.099,0.5-1.489,0.5c-0.256,0-0.487-0.073-0.695-0.244
			c-0.195-0.171-0.366-0.403-0.5-0.72c-0.122-0.305-0.232-0.685-0.306-1.135c-0.072-0.465-0.098-0.965-0.098-1.515
			c0-0.731,0.049-1.317,0.171-1.746c0.122-0.428,0.354-0.817,0.684-1.159c0.33-0.354,0.916-0.732,1.746-1.147
			c0.843-0.415,1.818-0.806,2.941-1.16c1.111-0.366,2.344-0.646,3.662-0.878c1.317-0.231,2.685-0.342,4.089-0.342
			c2.502,0,4.65,0.244,6.42,0.731c1.782,0.488,3.234,1.245,4.381,2.259c1.147,1.013,1.979,2.318,2.502,3.918
			c0.525,1.587,0.793,3.49,0.793,5.676V49.092L29.147,49.092z M20.311,35.434h-3.43c-1.452,0-2.697,0.11-3.723,0.317
			c-1.025,0.22-1.855,0.537-2.503,0.964c-0.646,0.439-1.109,0.952-1.415,1.563c-0.294,0.61-0.44,1.306-0.44,2.087
			c0,1.344,0.415,2.393,1.269,3.149c0.843,0.77,2.015,1.147,3.517,1.147c1.27,0,2.429-0.317,3.491-0.965
			c1.062-0.646,2.136-1.586,3.234-2.832V35.434L20.311,35.434z"/>
		<path fill="#ABCCE1" d="M64.651,48.982c0,0.27-0.061,0.488-0.183,0.671c-0.123,0.171-0.318,0.317-0.61,0.439
			c-0.28,0.122-0.671,0.208-1.159,0.256c-0.489,0.048-1.087,0.073-1.808,0.073c-0.756,0-1.379-0.024-1.854-0.073
			c-0.477-0.049-0.866-0.134-1.171-0.256c-0.294-0.122-0.514-0.27-0.636-0.439c-0.134-0.183-0.194-0.402-0.194-0.671v-3.54
			c-1.648,1.771-3.369,3.138-5.176,4.113c-1.794,0.977-3.796,1.465-5.98,1.465c-2.441,0-4.492-0.464-6.176-1.404
			c-1.674-0.939-3.053-2.209-4.114-3.808c-1.063-1.599-1.831-3.467-2.307-5.603c-0.478-2.137-0.708-4.383-0.708-6.738
			c0-2.844,0.306-5.396,0.903-7.653c0.61-2.271,1.501-4.199,2.673-5.798c1.16-1.599,2.624-2.819,4.357-3.674
			c1.746-0.867,3.747-1.294,6.005-1.294c1.794,0,3.417,0.366,4.87,1.086c1.452,0.732,2.893,1.794,4.321,3.21V2.075
			c0-0.244,0.072-0.452,0.194-0.647c0.135-0.195,0.378-0.354,0.721-0.488c0.342-0.122,0.806-0.231,1.379-0.305
			c0.573-0.062,1.293-0.098,2.172-0.098c0.891,0,1.611,0.036,2.185,0.098c0.574,0.073,1.025,0.183,1.355,0.305
			c0.342,0.134,0.573,0.293,0.72,0.488s0.22,0.403,0.22,0.647L64.651,48.982L64.651,48.982z M55.704,27.671
			c-1.282-1.624-2.515-2.856-3.698-3.711c-1.185-0.867-2.417-1.294-3.698-1.294c-1.172,0-2.173,0.293-3.027,0.879
			c-0.842,0.586-1.524,1.367-2.037,2.344c-0.514,0.977-0.892,2.063-1.147,3.271c-0.244,1.208-0.366,2.44-0.366,3.697
			c0,1.331,0.11,2.638,0.317,3.895c0.22,1.27,0.562,2.392,1.062,3.381c0.489,0.989,1.136,1.782,1.941,2.38
			c0.818,0.598,1.843,0.891,3.076,0.891c0.622,0,1.22-0.085,1.806-0.269c0.586-0.171,1.185-0.463,1.794-0.866
			c0.599-0.415,1.233-0.939,1.867-1.599c0.647-0.647,1.354-1.453,2.112-2.417L55.704,27.671L55.704,27.671z"/>
		<path fill="#ABCCE1" d="M102.229,32.712c0,2.722-0.366,5.199-1.074,7.444c-0.72,2.233-1.807,4.175-3.259,5.786
			c-1.453,1.624-3.271,2.88-5.468,3.76c-2.197,0.879-4.76,1.317-7.69,1.317c-2.832,0-5.297-0.391-7.396-1.172
			c-2.1-0.793-3.845-1.939-5.224-3.442c-1.38-1.502-2.405-3.344-3.076-5.542c-0.672-2.185-1.001-4.687-1.001-7.507
			c0-2.722,0.366-5.2,1.086-7.458c0.732-2.246,1.818-4.175,3.271-5.786c1.465-1.61,3.271-2.855,5.456-3.734
			c2.186-0.892,4.736-1.331,7.677-1.331c2.856,0,5.335,0.391,7.435,1.16c2.099,0.78,3.833,1.916,5.2,3.417
			c1.379,1.501,2.392,3.355,3.063,5.542C101.887,27.365,102.229,29.88,102.229,32.712L102.229,32.712z M92.964,33.078
			c0-1.574-0.122-3.027-0.378-4.346c-0.244-1.331-0.671-2.478-1.271-3.454c-0.599-0.976-1.391-1.745-2.38-2.281
			c-0.989-0.551-2.233-0.831-3.734-0.831c-1.331,0-2.502,0.245-3.503,0.731c-1.002,0.488-1.819,1.208-2.467,2.148
			c-0.646,0.939-1.123,2.075-1.452,3.393c-0.316,1.331-0.476,2.832-0.476,4.528c0,1.575,0.122,3.015,0.391,4.345
			c0.257,1.318,0.685,2.466,1.271,3.455c0.586,0.978,1.379,1.733,2.38,2.271c1.001,0.537,2.234,0.806,3.711,0.806
			c1.367,0,2.539-0.257,3.552-0.745c1-0.488,1.818-1.196,2.467-2.124c0.634-0.928,1.109-2.051,1.428-3.381
			C92.806,36.276,92.964,34.762,92.964,33.078L92.964,33.078z M86.886,1.428c0.171-0.268,0.366-0.488,0.61-0.683
			c0.231-0.184,0.537-0.343,0.891-0.44c0.354-0.109,0.805-0.195,1.355-0.231C90.292,0.024,90.962,0,91.744,0
			c1.099,0,1.965,0.049,2.6,0.134c0.635,0.098,1.086,0.232,1.354,0.415c0.28,0.183,0.402,0.39,0.378,0.623
			c-0.024,0.244-0.146,0.488-0.354,0.756l-6.945,8.3c-0.183,0.232-0.378,0.427-0.573,0.586c-0.184,0.159-0.428,0.281-0.732,0.378
			c-0.293,0.099-0.671,0.159-1.123,0.208s-1.024,0.074-1.721,0.074c-0.83,0-1.489-0.037-1.979-0.11
			c-0.487-0.072-0.83-0.183-1.024-0.329c-0.184-0.158-0.27-0.354-0.232-0.599c0.037-0.23,0.159-0.512,0.378-0.816L86.886,1.428
			L86.886,1.428z"/>
	</g>
</g>
</svg>
